<svg width="48" height="48" viewBox="0 0 48 48" fill="none" xmlns="http://www.w3.org/2000/svg">
<path d="M0 0H48V48H0V0ZM44.0667 36.552C43.7173 34.3627 42.2907 32.5227 38.0613 30.8053C36.5893 30.1147 34.9547 29.6373 34.464 28.528C34.2827 27.8667 34.256 27.5093 34.3733 27.1173C34.6747 25.8267 36.2053 25.44 37.4053 25.7973C38.1867 26.0373 38.9067 26.6373 39.3573 27.6C41.424 26.248 41.424 26.248 42.8667 25.3493C42.3253 24.512 42.056 24.1467 41.696 23.7867C40.4347 22.3787 38.7547 21.6587 36.0267 21.72L34.6187 21.8987C33.2667 22.2293 31.976 22.952 31.1973 23.9093C28.9173 26.4907 29.576 30.9893 32.336 32.8533C35.064 34.8933 39.0587 35.3413 39.568 37.2613C40.048 39.6027 37.8293 40.352 35.6347 40.0827C34.016 39.72 33.1147 38.912 32.1253 37.4107L28.4667 39.512C28.8853 40.4693 29.3653 40.8907 30.0853 41.7307C33.5653 45.24 42.2667 45.0613 43.8267 39.72C43.8827 39.5413 44.3067 38.312 43.976 36.4213L44.0667 36.552ZM26.1013 22.0613H21.6053C21.6053 25.936 21.5867 29.7893 21.5867 33.672C21.5867 36.136 21.712 38.3973 21.3093 39.0933C20.6507 40.472 18.9467 40.296 18.176 40.0507C17.384 39.6613 16.9813 39.12 16.5147 38.3413C16.3893 38.1333 16.296 37.952 16.2613 37.952L12.6133 40.2027C13.224 41.464 14.1147 42.5467 15.264 43.2347C16.9733 44.256 19.2693 44.5867 21.6747 44.048C23.2427 43.5947 24.5947 42.664 25.296 41.224C26.32 39.3653 26.1013 37.0827 26.0933 34.5333C26.1147 30.424 26.0933 26.312 26.0933 22.1733L26.1013 22.0613Z" fill="#2E2D2D"/>
</svg>
