<svg width="157" height="98" viewBox="0 0 157 98" fill="none" xmlns="http://www.w3.org/2000/svg">
<path d="M103.192 65C110.103 62.7636 113.558 57.6154 113.558 49.5554V42.9458C113.558 38.2737 115.267 35.9377 118.684 35.9377V29.0623C115.344 29.0623 113.635 26.8591 113.558 22.4527V15.4113C113.558 11.3149 112.694 8.0046 110.967 5.48033C109.239 2.95606 106.647 1.12928 103.192 0L101.579 5.34747C103.038 5.96747 104.142 7.05246 104.891 8.60245C105.639 10.1303 106.033 12.256 106.071 14.9796V21.9545C106.071 26.9588 107.789 30.4684 111.226 32.4834C107.789 34.5205 106.071 38.0523 106.071 43.0787V50.1201C105.975 55.3015 104.478 58.4679 101.579 59.6193L103.192 65Z" fill="#2E2D2D"/>
<path d="M58.5912 65C50.2977 62.7636 46.151 57.6154 46.151 49.5554V42.9458C46.151 38.2737 44.1007 35.9377 40 35.9377V29.0623C44.0085 29.0623 46.0588 26.8591 46.151 22.4527V15.4113C46.151 11.3149 47.1877 8.0046 49.261 5.48033C51.3344 2.95606 54.4444 1.12928 58.5912 0L60.5263 5.34747C58.7755 5.96747 57.4508 7.05246 56.5524 8.60245C55.6539 10.1303 55.1816 12.256 55.1356 14.9796V21.9545C55.1356 26.9588 53.0737 30.4684 48.95 32.4834C53.0737 34.5205 55.1356 38.0523 55.1356 43.0787V50.1201C55.2508 55.3015 57.0477 58.4679 60.5263 59.6193L58.5912 65Z" fill="#2E2D2D"/>
<path d="M85.3531 38.1683C85.3531 37.0909 84.7631 36.2474 83.5832 35.6375C82.4255 35.0074 80.5554 34.4484 77.9729 33.9606C69.3795 32.3141 65.0828 28.9804 65.0828 23.9596C65.0828 21.0325 66.4074 18.5933 69.0567 16.6419C71.7282 14.6701 75.2124 13.6843 79.5091 13.6843C84.0952 13.6843 87.7575 14.6701 90.4958 16.6419C93.2564 18.6136 94.6367 21.1748 94.6367 24.3255H84.9857C84.9857 23.0652 84.5405 22.0285 83.65 21.2155C82.7595 20.382 81.368 19.9653 79.4757 19.9653C77.8505 19.9653 76.5927 20.3007 75.7021 20.9715C74.8116 21.6423 74.3664 22.4961 74.3664 23.5328C74.3664 24.5085 74.8673 25.3012 75.8691 25.911C76.8932 26.5005 78.6074 27.0188 81.0118 27.466C83.4162 27.8929 85.4421 28.3808 87.0896 28.9296C92.1878 30.6371 94.7368 33.5947 94.7368 37.8024C94.7368 40.8108 93.3232 43.25 90.4958 45.1201C87.6684 46.9699 84.0173 47.8948 79.5425 47.8948C76.5147 47.8948 73.8209 47.4069 71.4611 46.4312C69.1235 45.4352 67.2868 44.0835 65.951 42.376C64.6153 40.6482 63.9474 38.7882 63.9474 36.7962H73.0974C73.1864 38.3614 73.8209 39.5607 75.0009 40.3941C76.1808 41.2275 77.7614 41.6442 79.7428 41.6442C81.5907 41.6442 82.9821 41.3291 83.9171 40.699C84.8744 40.0485 85.3531 39.205 85.3531 38.1683Z" fill="#808080"/>
<path d="M1.411 82.1H6.817C8.109 82.1 9.248 82.3493 10.234 82.848C11.2313 83.3353 12.002 84.0267 12.546 84.922C13.1013 85.8173 13.379 86.86 13.379 88.05C13.379 89.24 13.1013 90.2827 12.546 91.178C12.002 92.0733 11.2313 92.7703 10.234 93.269C9.248 93.7563 8.109 94 6.817 94H1.411V82.1ZM6.681 91.739C7.871 91.739 8.81733 91.4103 9.52 90.753C10.234 90.0843 10.591 89.1833 10.591 88.05C10.591 86.9167 10.234 86.0213 9.52 85.364C8.81733 84.6953 7.871 84.361 6.681 84.361H4.165V91.739H6.681ZM24.2279 89.461C24.2279 89.495 24.2109 89.733 24.1769 90.175H17.2579C17.3826 90.7417 17.6773 91.1893 18.1419 91.518C18.6066 91.8467 19.1846 92.011 19.8759 92.011C20.3519 92.011 20.7713 91.943 21.1339 91.807C21.5079 91.6597 21.8536 91.433 22.1709 91.127L23.5819 92.657C22.7206 93.643 21.4626 94.136 19.8079 94.136C18.7766 94.136 17.8643 93.9377 17.0709 93.541C16.2776 93.133 15.6656 92.572 15.2349 91.858C14.8043 91.144 14.5889 90.3337 14.5889 89.427C14.5889 88.5317 14.7986 87.727 15.2179 87.013C15.6486 86.2877 16.2323 85.7267 16.9689 85.33C17.7169 84.922 18.5499 84.718 19.4679 84.718C20.3633 84.718 21.1736 84.9107 21.8989 85.296C22.6243 85.6813 23.1909 86.2367 23.5989 86.962C24.0183 87.676 24.2279 88.509 24.2279 89.461ZM19.4849 86.724C18.8843 86.724 18.3799 86.894 17.9719 87.234C17.5639 87.574 17.3146 88.0387 17.2239 88.628H21.7289C21.6383 88.05 21.3889 87.591 20.9809 87.251C20.5729 86.8997 20.0743 86.724 19.4849 86.724ZM34.9055 84.854L31.0465 94H28.3095L24.4675 84.854H27.2045L29.7375 91.076L32.3555 84.854H34.9055ZM44.6976 89.461C44.6976 89.495 44.6806 89.733 44.6466 90.175H37.7276C37.8523 90.7417 38.147 91.1893 38.6116 91.518C39.0763 91.8467 39.6543 92.011 40.3456 92.011C40.8216 92.011 41.241 91.943 41.6036 91.807C41.9776 91.6597 42.3233 91.433 42.6406 91.127L44.0516 92.657C43.1903 93.643 41.9323 94.136 40.2776 94.136C39.2463 94.136 38.334 93.9377 37.5406 93.541C36.7473 93.133 36.1353 92.572 35.7046 91.858C35.274 91.144 35.0586 90.3337 35.0586 89.427C35.0586 88.5317 35.2683 87.727 35.6876 87.013C36.1183 86.2877 36.702 85.7267 37.4386 85.33C38.1866 84.922 39.0196 84.718 39.9376 84.718C40.833 84.718 41.6433 84.9107 42.3686 85.296C43.094 85.6813 43.6606 86.2367 44.0686 86.962C44.488 87.676 44.6976 88.509 44.6976 89.461ZM39.9546 86.724C39.354 86.724 38.8496 86.894 38.4416 87.234C38.0336 87.574 37.7843 88.0387 37.6936 88.628H42.1986C42.108 88.05 41.8586 87.591 41.4506 87.251C41.0426 86.8997 40.544 86.724 39.9546 86.724ZM46.4633 81.386H49.1153V94H46.4633V81.386ZM55.9285 94.136C54.9652 94.136 54.0982 93.9377 53.3275 93.541C52.5682 93.133 51.9732 92.572 51.5425 91.858C51.1119 91.144 50.8965 90.3337 50.8965 89.427C50.8965 88.5203 51.1119 87.71 51.5425 86.996C51.9732 86.282 52.5682 85.7267 53.3275 85.33C54.0982 84.922 54.9652 84.718 55.9285 84.718C56.8919 84.718 57.7532 84.922 58.5125 85.33C59.2719 85.7267 59.8669 86.282 60.2975 86.996C60.7282 87.71 60.9435 88.5203 60.9435 89.427C60.9435 90.3337 60.7282 91.144 60.2975 91.858C59.8669 92.572 59.2719 93.133 58.5125 93.541C57.7532 93.9377 56.8919 94.136 55.9285 94.136ZM55.9285 91.96C56.6085 91.96 57.1639 91.7333 57.5945 91.28C58.0365 90.8153 58.2575 90.1977 58.2575 89.427C58.2575 88.6563 58.0365 88.0443 57.5945 87.591C57.1639 87.1263 56.6085 86.894 55.9285 86.894C55.2485 86.894 54.6875 87.1263 54.2455 87.591C53.8035 88.0443 53.5825 88.6563 53.5825 89.427C53.5825 90.1977 53.8035 90.8153 54.2455 91.28C54.6875 91.7333 55.2485 91.96 55.9285 91.96ZM68.1222 84.718C68.9722 84.718 69.7429 84.9163 70.4342 85.313C71.1369 85.6983 71.6865 86.248 72.0832 86.962C72.4799 87.6647 72.6782 88.4863 72.6782 89.427C72.6782 90.3677 72.4799 91.195 72.0832 91.909C71.6865 92.6117 71.1369 93.1613 70.4342 93.558C69.7429 93.9433 68.9722 94.136 68.1222 94.136C66.9549 94.136 66.0369 93.7677 65.3682 93.031V97.298H62.7162V84.854H65.2492V85.908C65.9065 85.1147 66.8642 84.718 68.1222 84.718ZM67.6632 91.96C68.3432 91.96 68.8985 91.7333 69.3292 91.28C69.7712 90.8153 69.9922 90.1977 69.9922 89.427C69.9922 88.6563 69.7712 88.0443 69.3292 87.591C68.8985 87.1263 68.3432 86.894 67.6632 86.894C66.9832 86.894 66.4222 87.1263 65.9802 87.591C65.5495 88.0443 65.3342 88.6563 65.3342 89.427C65.3342 90.1977 65.5495 90.8153 65.9802 91.28C66.4222 91.7333 66.9832 91.96 67.6632 91.96ZM83.4125 89.461C83.4125 89.495 83.3955 89.733 83.3615 90.175H76.4425C76.5672 90.7417 76.8618 91.1893 77.3265 91.518C77.7912 91.8467 78.3692 92.011 79.0605 92.011C79.5365 92.011 79.9558 91.943 80.3185 91.807C80.6925 91.6597 81.0382 91.433 81.3555 91.127L82.7665 92.657C81.9052 93.643 80.6472 94.136 78.9925 94.136C77.9612 94.136 77.0488 93.9377 76.2555 93.541C75.4622 93.133 74.8502 92.572 74.4195 91.858C73.9888 91.144 73.7735 90.3337 73.7735 89.427C73.7735 88.5317 73.9832 87.727 74.4025 87.013C74.8332 86.2877 75.4168 85.7267 76.1535 85.33C76.9015 84.922 77.7345 84.718 78.6525 84.718C79.5478 84.718 80.3582 84.9107 81.0835 85.296C81.8088 85.6813 82.3755 86.2367 82.7835 86.962C83.2028 87.676 83.4125 88.509 83.4125 89.461ZM78.6695 86.724C78.0688 86.724 77.5645 86.894 77.1565 87.234C76.7485 87.574 76.4992 88.0387 76.4085 88.628H80.9135C80.8228 88.05 80.5735 87.591 80.1655 87.251C79.7575 86.8997 79.2588 86.724 78.6695 86.724ZM87.7111 86.061C88.0284 85.619 88.4534 85.2847 88.9861 85.058C89.5301 84.8313 90.1534 84.718 90.8561 84.718V87.166C90.5614 87.1433 90.3631 87.132 90.2611 87.132C89.5018 87.132 88.9068 87.3473 88.4761 87.778C88.0454 88.1973 87.8301 88.832 87.8301 89.682V94H85.1781V84.854H87.7111V86.061ZM101.411 94.204C100.47 94.204 99.5578 94.0793 98.6738 93.83C97.8012 93.5693 97.0985 93.235 96.5658 92.827L97.5008 90.753C98.0108 91.127 98.6172 91.4273 99.3198 91.654C100.023 91.8807 100.725 91.994 101.428 91.994C102.21 91.994 102.788 91.8807 103.162 91.654C103.536 91.416 103.723 91.1043 103.723 90.719C103.723 90.4357 103.61 90.2033 103.383 90.022C103.168 89.8293 102.884 89.6763 102.533 89.563C102.193 89.4497 101.728 89.325 101.139 89.189C100.232 88.9737 99.4898 88.7583 98.9118 88.543C98.3338 88.3277 97.8352 87.982 97.4158 87.506C97.0078 87.03 96.8038 86.3953 96.8038 85.602C96.8038 84.9107 96.9908 84.2873 97.3648 83.732C97.7388 83.1653 98.2998 82.7177 99.0478 82.389C99.8072 82.0603 100.731 81.896 101.819 81.896C102.578 81.896 103.321 81.9867 104.046 82.168C104.771 82.3493 105.406 82.61 105.95 82.95L105.1 85.041C104.001 84.4177 102.901 84.106 101.802 84.106C101.031 84.106 100.459 84.2307 100.085 84.48C99.7222 84.7293 99.5408 85.058 99.5408 85.466C99.5408 85.874 99.7505 86.18 100.17 86.384C100.601 86.5767 101.252 86.7693 102.125 86.962C103.032 87.1773 103.774 87.3927 104.352 87.608C104.93 87.8233 105.423 88.1633 105.831 88.628C106.25 89.0927 106.46 89.7217 106.46 90.515C106.46 91.195 106.267 91.8183 105.882 92.385C105.508 92.9403 104.941 93.3823 104.182 93.711C103.423 94.0397 102.499 94.204 101.411 94.204ZM112.575 94.136C111.6 94.136 110.722 93.9377 109.94 93.541C109.169 93.133 108.563 92.572 108.121 91.858C107.69 91.144 107.475 90.3337 107.475 89.427C107.475 88.5203 107.69 87.71 108.121 86.996C108.563 86.282 109.169 85.7267 109.94 85.33C110.722 84.922 111.6 84.718 112.575 84.718C113.538 84.718 114.377 84.922 115.091 85.33C115.816 85.7267 116.343 86.299 116.672 87.047L114.615 88.152C114.139 87.3133 113.453 86.894 112.558 86.894C111.866 86.894 111.294 87.1207 110.841 87.574C110.387 88.0273 110.161 88.645 110.161 89.427C110.161 90.209 110.387 90.8267 110.841 91.28C111.294 91.7333 111.866 91.96 112.558 91.96C113.464 91.96 114.15 91.5407 114.615 90.702L116.672 91.824C116.343 92.5493 115.816 93.116 115.091 93.524C114.377 93.932 113.538 94.136 112.575 94.136ZM123.691 84.718C124.825 84.718 125.737 85.058 126.428 85.738C127.131 86.418 127.482 87.4267 127.482 88.764V94H124.83V89.172C124.83 88.4467 124.672 87.9083 124.354 87.557C124.037 87.1943 123.578 87.013 122.977 87.013C122.309 87.013 121.776 87.2227 121.379 87.642C120.983 88.05 120.784 88.662 120.784 89.478V94H118.132V81.386H120.784V85.806C121.136 85.4547 121.561 85.1883 122.059 85.007C122.558 84.8143 123.102 84.718 123.691 84.718ZM134.338 94.136C133.374 94.136 132.507 93.9377 131.737 93.541C130.977 93.133 130.382 92.572 129.952 91.858C129.521 91.144 129.306 90.3337 129.306 89.427C129.306 88.5203 129.521 87.71 129.952 86.996C130.382 86.282 130.977 85.7267 131.737 85.33C132.507 84.922 133.374 84.718 134.338 84.718C135.301 84.718 136.162 84.922 136.922 85.33C137.681 85.7267 138.276 86.282 138.707 86.996C139.137 87.71 139.353 88.5203 139.353 89.427C139.353 90.3337 139.137 91.144 138.707 91.858C138.276 92.572 137.681 93.133 136.922 93.541C136.162 93.9377 135.301 94.136 134.338 94.136ZM134.338 91.96C135.018 91.96 135.573 91.7333 136.004 91.28C136.446 90.8153 136.667 90.1977 136.667 89.427C136.667 88.6563 136.446 88.0443 136.004 87.591C135.573 87.1263 135.018 86.894 134.338 86.894C133.658 86.894 133.097 87.1263 132.655 87.591C132.213 88.0443 131.992 88.6563 131.992 89.427C131.992 90.1977 132.213 90.8153 132.655 91.28C133.097 91.7333 133.658 91.96 134.338 91.96ZM145.477 94.136C144.514 94.136 143.647 93.9377 142.876 93.541C142.117 93.133 141.522 92.572 141.091 91.858C140.661 91.144 140.445 90.3337 140.445 89.427C140.445 88.5203 140.661 87.71 141.091 86.996C141.522 86.282 142.117 85.7267 142.876 85.33C143.647 84.922 144.514 84.718 145.477 84.718C146.441 84.718 147.302 84.922 148.061 85.33C148.821 85.7267 149.416 86.282 149.846 86.996C150.277 87.71 150.492 88.5203 150.492 89.427C150.492 90.3337 150.277 91.144 149.846 91.858C149.416 92.572 148.821 93.133 148.061 93.541C147.302 93.9377 146.441 94.136 145.477 94.136ZM145.477 91.96C146.157 91.96 146.713 91.7333 147.143 91.28C147.585 90.8153 147.806 90.1977 147.806 89.427C147.806 88.6563 147.585 88.0443 147.143 87.591C146.713 87.1263 146.157 86.894 145.477 86.894C144.797 86.894 144.236 87.1263 143.794 87.591C143.352 88.0443 143.131 88.6563 143.131 89.427C143.131 90.1977 143.352 90.8153 143.794 91.28C144.236 91.7333 144.797 91.96 145.477 91.96ZM152.265 81.386H154.917V94H152.265V81.386Z" fill="#808080"/>
</svg>
