<svg width="40" height="33" viewBox="0 0 40 33" fill="none" xmlns="http://www.w3.org/2000/svg">
<path d="M32.0819 33C35.5906 31.8646 37.345 29.2509 37.345 25.1589V21.8033C37.345 19.4313 38.2125 18.2453 39.9474 18.2453V14.7547C38.2515 14.7547 37.384 13.6362 37.345 11.3991V7.82422C37.345 5.74451 36.9064 4.06387 36.0292 2.78232C35.152 1.50077 33.8362 0.573327 32.0819 0L31.2631 2.71487C32.0039 3.02964 32.5643 3.58048 32.9444 4.3674C33.3246 5.14308 33.5244 6.22228 33.5438 7.60501V11.1461C33.5438 13.6868 34.4162 15.4686 36.1608 16.4916C34.4162 17.5258 33.5438 19.3189 33.5438 21.8707V25.4456C33.4951 28.0761 32.7349 29.6837 31.2631 30.2683L32.0819 33Z" fill="#2B463C"/>
<path d="M9.4386 33C5.22807 31.8646 3.12281 29.2509 3.12281 25.1589V21.8033C3.12281 19.4313 2.08187 18.2453 0 18.2453V14.7547C2.03509 14.7547 3.07602 13.6362 3.12281 11.3991V7.82422C3.12281 5.74451 3.64912 4.06387 4.70175 2.78232C5.75439 1.50077 7.33333 0.573327 9.4386 0L10.4211 2.71487C9.53216 3.02964 8.85965 3.58048 8.40351 4.3674C7.94737 5.14308 7.7076 6.22228 7.68421 7.60501V11.1461C7.68421 13.6868 6.63743 15.4686 4.54386 16.4916C6.63743 17.5258 7.68421 19.3189 7.68421 21.8707V25.4456C7.74269 28.0761 8.65497 29.6837 10.4211 30.2683L9.4386 33Z" fill="#2B463C"/>
<path d="M23.0254 19.3777C23.0254 18.8308 22.7259 18.4025 22.1268 18.0929C21.5391 17.773 20.5897 17.4892 19.2786 17.2415C14.9157 16.4056 12.7343 14.7131 12.7343 12.1641C12.7343 10.678 13.4068 9.43965 14.7519 8.44894C16.1082 7.4479 17.877 6.94739 20.0585 6.94739C22.3868 6.94739 24.2461 7.4479 25.6363 8.44894C27.0379 9.44997 27.7386 10.7503 27.7386 12.3499H22.8389C22.8389 11.71 22.6129 11.1837 22.1608 10.7709C21.7086 10.3478 21.0022 10.1362 20.0415 10.1362C19.2164 10.1362 18.5778 10.3065 18.1257 10.6471C17.6736 10.9876 17.4475 11.4211 17.4475 11.9474C17.4475 12.4427 17.7019 12.8452 18.2105 13.1548C18.7304 13.4541 19.6007 13.7173 20.8214 13.9443C22.0421 14.161 23.0706 14.4087 23.907 14.6873C26.4953 15.5542 27.7895 17.0557 27.7895 19.192C27.7895 20.7193 27.0718 21.9577 25.6363 22.9071C24.2009 23.8463 22.3472 24.3158 20.0754 24.3158C18.5382 24.3158 17.1706 24.0681 15.9725 23.5728C14.7858 23.0671 13.8533 22.3808 13.1751 21.514C12.497 20.6368 12.1579 19.6925 12.1579 18.6811H16.8033C16.8485 19.4758 17.1706 20.0846 17.7697 20.5078C18.3687 20.9309 19.1712 21.1424 20.1771 21.1424C21.1153 21.1424 21.8217 20.9825 22.2964 20.6626C22.7824 20.3323 23.0254 19.904 23.0254 19.3777Z" fill="#688F4E"/>
</svg>
